<svg width="324" height="324" viewBox="0 0 324 324" fill="none" xmlns="http://www.w3.org/2000/svg">
<rect width="324" height="324" fill="#0856A0"/>
<path d="M143.685 216.626V199.618M177.701 199.618V216.626M191.064 174.713C188.855 200.528 146.93 230.403 131.536 174.713M123.639 140.697C125.462 137.66 115.743 130.371 115.743 130.371C115.743 130.371 131.536 110.326 143.685 105.466C155.833 100.607 158.87 103.036 166.767 105.466C174.664 107.896 179.523 115.185 179.523 115.185C190.422 115.764 192.471 118.933 197.138 130.371" stroke="white" stroke-width="4"/>
<path d="M132.064 176.586V173.564C132.064 173.564 129.213 175.561 126.677 177.374C124.141 179.188 123.821 169.332 121.285 163.892C118.749 158.451 123.821 161.473 127.625 162.078M127.625 162.078C131.43 162.683 132.064 159.055 132.064 159.055C131.963 153.126 131.843 149.8 133.966 143.942M127.625 162.078L123.821 139.106" stroke="white" stroke-width="4"/>
<path d="M191.064 175.552V173.73C191.064 173.73 192.279 174.337 194.709 176.159C197.138 177.982 198.353 169.478 200.783 164.011C202.631 159.853 198.44 159.4 195.596 160.27M189.849 143.358C190.457 149.432 190.553 153.194 190.457 159.151C190.457 159.151 191.064 162.796 194.709 162.188C195.581 162.043 194.701 160.544 195.596 160.27M195.316 127.565C198.317 127.445 198.939 146.569 195.596 160.27" stroke="white" stroke-width="4"/>
<path d="M121.817 92.3343H73.8303C61.8835 95.8742 57.3341 99.5175 55 110.557V258.162H268.208V110.557C265.607 98.6852 260.128 95.57 249.377 92.3343H201.39M121.817 92.3343V72.2891L129.106 65H194.709L201.39 72.2891V92.3343M121.817 92.3343H201.39" stroke="white" stroke-width="6"/>
<path d="M95.0904 258.162C95.0904 258.162 95.0904 250.388 95.0904 245.406C93.3392 233.894 105.694 227.676 143.077 216.857C146.829 224.968 160.693 230.828 160.693 230.828C160.693 230.828 176.598 224.984 178.916 216.857C217.646 228.419 226.8 233.431 227.51 240.547V258.162" stroke="white" stroke-width="5"/>
<path d="M190.457 159.759C190.457 155.581 189.711 151.143 189.711 146.932C189.711 144.84 189.888 142.712 189.36 140.718C188.743 138.388 187.266 136.254 185.982 134.185M186.617 135.197C185.799 133.806 180.468 127.099 179.609 125.772C179.441 125.513 178.023 127.043 177.665 127.366C176.902 128.053 175.712 128.356 174.797 128.8C172.186 130.068 169.48 130.763 166.767 131.668" stroke="white" stroke-width="4" stroke-linecap="round" stroke-linejoin="round"/>
<path d="M151.067 134.733C153.759 134.787 157.869 137.035 159.478 134.247M137.61 139.106C138.909 136.375 140.889 135.986 144.339 135.219" stroke="white" stroke-width="3" stroke-linecap="round" stroke-linejoin="round"/>
</svg>
