<svg width="1200" height="630" viewBox="0 0 1200 630" fill="none" xmlns="http://www.w3.org/2000/svg">
<rect width="1200" height="630" fill="#0856A0"/>
<path d="M571.327 321.339V294.043M625.918 294.043V321.339M647.365 254.075C643.82 295.505 576.535 343.451 551.83 254.075M539.157 199.484C542.082 194.61 526.484 182.911 526.484 182.911C526.484 182.911 551.83 150.742 571.327 142.943C590.824 135.144 595.698 139.043 608.371 142.943C621.044 146.842 628.843 158.54 628.843 158.54C646.334 159.469 649.623 164.556 657.113 182.911" stroke="white" stroke-width="4"/>
<path d="M552.677 257.081V252.231C552.677 252.231 548.102 255.435 544.031 258.346C539.961 261.256 539.449 245.439 535.379 236.708C531.308 227.976 539.449 232.827 545.554 233.797M545.554 233.797C551.659 234.767 552.677 228.946 552.677 228.946C552.516 219.431 552.322 214.093 555.73 204.692M545.554 233.797L539.449 196.931" stroke="white" stroke-width="4"/>
<path d="M647.365 255.421V252.497C647.365 252.497 649.315 253.472 653.214 256.396C657.113 259.321 659.063 245.673 662.962 236.899C665.928 230.226 659.202 229.499 654.638 230.895M645.415 203.754C646.39 213.503 646.544 219.539 646.39 229.1C646.39 229.1 647.365 234.949 653.214 233.975C654.614 233.741 653.201 231.335 654.638 230.895M654.189 178.409C659.005 178.216 660.003 208.908 654.638 230.895" stroke="white" stroke-width="4"/>
<path d="M536.233 121.868H459.22C440.047 127.549 432.746 133.396 429 151.113V388H771.17V151.113C766.996 132.06 758.203 127.061 740.95 121.868H663.937M536.233 121.868V89.6981L547.931 78H653.214L663.937 89.6981V121.868M536.233 121.868H663.937" stroke="white" stroke-width="6"/>
<path d="M493.34 388C493.34 388 493.34 375.523 493.34 367.528C490.529 349.053 510.358 339.073 570.352 321.711C576.373 334.727 598.623 344.132 598.623 344.132C598.623 344.132 624.148 334.753 627.868 321.711C690.025 340.265 704.716 348.31 705.855 359.73V388" stroke="white" stroke-width="5"/>
<path d="M646.39 230.075C646.39 223.37 645.193 216.248 645.193 209.489C645.193 206.132 645.477 202.717 644.63 199.517C643.64 195.777 641.27 192.352 639.209 189.033M640.229 190.657C638.915 188.424 630.359 177.661 628.981 175.532C628.711 175.115 626.436 177.571 625.861 178.089C624.636 179.192 622.726 179.677 621.259 180.39C617.067 182.426 612.725 183.541 608.371 184.993" stroke="white" stroke-width="4" stroke-linecap="round" stroke-linejoin="round"/>
<path d="M583.175 189.912C587.495 189.999 594.092 193.606 596.673 189.132M561.579 196.931C563.663 192.547 566.84 191.923 572.377 190.692" stroke="white" stroke-width="3" stroke-linecap="round" stroke-linejoin="round"/>
<path d="M385.344 474H379.562V426H385.344V474ZM400.906 474H395.125V440.188H400.906V474ZM394.656 431.219C394.656 430.281 394.938 429.49 395.5 428.844C396.083 428.198 396.938 427.875 398.062 427.875C399.188 427.875 400.042 428.198 400.625 428.844C401.208 429.49 401.5 430.281 401.5 431.219C401.5 432.156 401.208 432.938 400.625 433.562C400.042 434.188 399.188 434.5 398.062 434.5C396.938 434.5 396.083 434.188 395.5 433.562C394.938 432.938 394.656 432.156 394.656 431.219ZM429.875 465.031C429.875 463.469 429.281 462.26 428.094 461.406C426.927 460.531 424.875 459.781 421.938 459.156C419.021 458.531 416.698 457.781 414.969 456.906C413.26 456.031 411.99 454.99 411.156 453.781C410.344 452.573 409.938 451.135 409.938 449.469C409.938 446.698 411.104 444.354 413.438 442.438C415.792 440.521 418.792 439.562 422.438 439.562C426.271 439.562 429.375 440.552 431.75 442.531C434.146 444.51 435.344 447.042 435.344 450.125H429.531C429.531 448.542 428.854 447.177 427.5 446.031C426.167 444.885 424.479 444.312 422.438 444.312C420.333 444.312 418.688 444.771 417.5 445.688C416.312 446.604 415.719 447.802 415.719 449.281C415.719 450.677 416.271 451.729 417.375 452.438C418.479 453.146 420.469 453.823 423.344 454.469C426.24 455.115 428.583 455.885 430.375 456.781C432.167 457.677 433.49 458.76 434.344 460.031C435.219 461.281 435.656 462.812 435.656 464.625C435.656 467.646 434.448 470.073 432.031 471.906C429.615 473.719 426.479 474.625 422.625 474.625C419.917 474.625 417.521 474.146 415.438 473.188C413.354 472.229 411.719 470.896 410.531 469.188C409.365 467.458 408.781 465.594 408.781 463.594H414.562C414.667 465.531 415.438 467.073 416.875 468.219C418.333 469.344 420.25 469.906 422.625 469.906C424.812 469.906 426.562 469.469 427.875 468.594C429.208 467.698 429.875 466.51 429.875 465.031ZM451.031 432V440.188H457.344V444.656H451.031V465.625C451.031 466.979 451.312 468 451.875 468.688C452.438 469.354 453.396 469.688 454.75 469.688C455.417 469.688 456.333 469.562 457.5 469.312V474C455.979 474.417 454.5 474.625 453.062 474.625C450.479 474.625 448.531 473.844 447.219 472.281C445.906 470.719 445.25 468.5 445.25 465.625V444.656H439.094V440.188H445.25V432H451.031ZM478.469 456.781C478.469 453.469 479.115 450.49 480.406 447.844C481.719 445.198 483.531 443.156 485.844 441.719C488.177 440.281 490.833 439.562 493.812 439.562C498.417 439.562 502.135 441.156 504.969 444.344C507.823 447.531 509.25 451.771 509.25 457.062V457.469C509.25 460.76 508.615 463.719 507.344 466.344C506.094 468.948 504.292 470.979 501.938 472.438C499.604 473.896 496.917 474.625 493.875 474.625C489.292 474.625 485.573 473.031 482.719 469.844C479.885 466.656 478.469 462.438 478.469 457.188V456.781ZM484.281 457.469C484.281 461.219 485.146 464.229 486.875 466.5C488.625 468.771 490.958 469.906 493.875 469.906C496.812 469.906 499.146 468.76 500.875 466.469C502.604 464.156 503.469 460.927 503.469 456.781C503.469 453.073 502.583 450.073 500.812 447.781C499.062 445.469 496.729 444.312 493.812 444.312C490.958 444.312 488.656 445.448 486.906 447.719C485.156 449.99 484.281 453.24 484.281 457.469ZM519.344 474V444.656H514V440.188H519.344V436.719C519.344 433.094 520.312 430.292 522.25 428.312C524.188 426.333 526.927 425.344 530.469 425.344C531.802 425.344 533.125 425.521 534.438 425.875L534.125 430.562C533.146 430.375 532.104 430.281 531 430.281C529.125 430.281 527.677 430.833 526.656 431.938C525.635 433.021 525.125 434.583 525.125 436.625V440.188H532.344V444.656H525.125V474H519.344ZM560.062 440.188L560.219 443.938C562.698 441.021 566.042 439.562 570.25 439.562C574.979 439.562 578.198 441.375 579.906 445C581.031 443.375 582.49 442.062 584.281 441.062C586.094 440.062 588.229 439.562 590.688 439.562C598.104 439.562 601.875 443.49 602 451.344V474H596.219V451.688C596.219 449.271 595.667 447.469 594.562 446.281C593.458 445.073 591.604 444.469 589 444.469C586.854 444.469 585.073 445.115 583.656 446.406C582.24 447.677 581.417 449.396 581.188 451.562V474H575.375V451.844C575.375 446.927 572.969 444.469 568.156 444.469C564.365 444.469 561.771 446.083 560.375 449.312V474H554.594V440.188H560.062ZM621.812 465.531L629.688 440.188H635.875L622.281 479.219C620.177 484.844 616.833 487.656 612.25 487.656L611.156 487.562L609 487.156V482.469L610.562 482.594C612.521 482.594 614.042 482.198 615.125 481.406C616.229 480.615 617.135 479.167 617.844 477.062L619.125 473.625L607.062 440.188H613.375L621.812 465.531ZM686.875 466.031L693.375 440.188H699.156L689.312 474H684.625L676.406 448.375L668.406 474H663.719L653.906 440.188H659.656L666.312 465.5L674.188 440.188H678.844L686.875 466.031ZM703.531 456.781C703.531 453.469 704.177 450.49 705.469 447.844C706.781 445.198 708.594 443.156 710.906 441.719C713.24 440.281 715.896 439.562 718.875 439.562C723.479 439.562 727.198 441.156 730.031 444.344C732.885 447.531 734.312 451.771 734.312 457.062V457.469C734.312 460.76 733.677 463.719 732.406 466.344C731.156 468.948 729.354 470.979 727 472.438C724.667 473.896 721.979 474.625 718.938 474.625C714.354 474.625 710.635 473.031 707.781 469.844C704.948 466.656 703.531 462.438 703.531 457.188V456.781ZM709.344 457.469C709.344 461.219 710.208 464.229 711.938 466.5C713.688 468.771 716.021 469.906 718.938 469.906C721.875 469.906 724.208 468.76 725.938 466.469C727.667 464.156 728.531 460.927 728.531 456.781C728.531 453.073 727.646 450.073 725.875 447.781C724.125 445.469 721.792 444.312 718.875 444.312C716.021 444.312 713.719 445.448 711.969 447.719C710.219 449.99 709.344 453.24 709.344 457.469ZM757.906 445.375C757.031 445.229 756.083 445.156 755.062 445.156C751.271 445.156 748.698 446.771 747.344 450V474H741.562V440.188H747.188L747.281 444.094C749.177 441.073 751.865 439.562 755.344 439.562C756.469 439.562 757.323 439.708 757.906 440V445.375ZM772.688 458.344L769.062 462.125V474H763.281V426H769.062V455.031L772.156 451.312L782.688 440.188H789.719L776.562 454.312L791.25 474H784.469L772.688 458.344ZM815.375 465.031C815.375 463.469 814.781 462.26 813.594 461.406C812.427 460.531 810.375 459.781 807.438 459.156C804.521 458.531 802.198 457.781 800.469 456.906C798.76 456.031 797.49 454.99 796.656 453.781C795.844 452.573 795.438 451.135 795.438 449.469C795.438 446.698 796.604 444.354 798.938 442.438C801.292 440.521 804.292 439.562 807.938 439.562C811.771 439.562 814.875 440.552 817.25 442.531C819.646 444.51 820.844 447.042 820.844 450.125H815.031C815.031 448.542 814.354 447.177 813 446.031C811.667 444.885 809.979 444.312 807.938 444.312C805.833 444.312 804.188 444.771 803 445.688C801.812 446.604 801.219 447.802 801.219 449.281C801.219 450.677 801.771 451.729 802.875 452.438C803.979 453.146 805.969 453.823 808.844 454.469C811.74 455.115 814.083 455.885 815.875 456.781C817.667 457.677 818.99 458.76 819.844 460.031C820.719 461.281 821.156 462.812 821.156 464.625C821.156 467.646 819.948 470.073 817.531 471.906C815.115 473.719 811.979 474.625 808.125 474.625C805.417 474.625 803.021 474.146 800.938 473.188C798.854 472.229 797.219 470.896 796.031 469.188C794.865 467.458 794.281 465.594 794.281 463.594H800.062C800.167 465.531 800.938 467.073 802.375 468.219C803.833 469.344 805.75 469.906 808.125 469.906C810.312 469.906 812.062 469.469 813.375 468.594C814.708 467.698 815.375 466.51 815.375 465.031ZM418.969 549C418.635 548.333 418.365 547.146 418.156 545.438C415.469 548.229 412.26 549.625 408.531 549.625C405.198 549.625 402.458 548.688 400.312 546.812C398.188 544.917 397.125 542.521 397.125 539.625C397.125 536.104 398.458 533.375 401.125 531.438C403.812 529.479 407.583 528.5 412.438 528.5H418.062V525.844C418.062 523.823 417.458 522.219 416.25 521.031C415.042 519.823 413.26 519.219 410.906 519.219C408.844 519.219 407.115 519.74 405.719 520.781C404.323 521.823 403.625 523.083 403.625 524.562H397.812C397.812 522.875 398.406 521.25 399.594 519.688C400.802 518.104 402.427 516.854 404.469 515.938C406.531 515.021 408.792 514.562 411.25 514.562C415.146 514.562 418.198 515.542 420.406 517.5C422.615 519.438 423.76 522.115 423.844 525.531V541.094C423.844 544.198 424.24 546.667 425.031 548.5V549H418.969ZM409.375 544.594C411.188 544.594 412.906 544.125 414.531 543.188C416.156 542.25 417.333 541.031 418.062 539.531V532.594H413.531C406.448 532.594 402.906 534.667 402.906 538.812C402.906 540.625 403.51 542.042 404.719 543.062C405.927 544.083 407.479 544.594 409.375 544.594ZM433.031 545.969C433.031 544.969 433.323 544.135 433.906 543.469C434.51 542.802 435.406 542.469 436.594 542.469C437.781 542.469 438.677 542.802 439.281 543.469C439.906 544.135 440.219 544.969 440.219 545.969C440.219 546.927 439.906 547.729 439.281 548.375C438.677 549.021 437.781 549.344 436.594 549.344C435.406 549.344 434.51 549.021 433.906 548.375C433.323 547.729 433.031 546.927 433.031 545.969ZM459.219 533.344L455.594 537.125V549H449.812V501H455.594V530.031L458.688 526.312L469.219 515.188H476.25L463.094 529.312L477.781 549H471L459.219 533.344ZM482.344 545.969C482.344 544.969 482.635 544.135 483.219 543.469C483.823 542.802 484.719 542.469 485.906 542.469C487.094 542.469 487.99 542.802 488.594 543.469C489.219 544.135 489.531 544.969 489.531 545.969C489.531 546.927 489.219 547.729 488.594 548.375C487.99 549.021 487.094 549.344 485.906 549.344C484.719 549.344 483.823 549.021 483.219 548.375C482.635 547.729 482.344 546.927 482.344 545.969ZM519.969 549C519.635 548.333 519.365 547.146 519.156 545.438C516.469 548.229 513.26 549.625 509.531 549.625C506.198 549.625 503.458 548.688 501.312 546.812C499.188 544.917 498.125 542.521 498.125 539.625C498.125 536.104 499.458 533.375 502.125 531.438C504.812 529.479 508.583 528.5 513.438 528.5H519.062V525.844C519.062 523.823 518.458 522.219 517.25 521.031C516.042 519.823 514.26 519.219 511.906 519.219C509.844 519.219 508.115 519.74 506.719 520.781C505.323 521.823 504.625 523.083 504.625 524.562H498.812C498.812 522.875 499.406 521.25 500.594 519.688C501.802 518.104 503.427 516.854 505.469 515.938C507.531 515.021 509.792 514.562 512.25 514.562C516.146 514.562 519.198 515.542 521.406 517.5C523.615 519.438 524.76 522.115 524.844 525.531V541.094C524.844 544.198 525.24 546.667 526.031 548.5V549H519.969ZM510.375 544.594C512.188 544.594 513.906 544.125 515.531 543.188C517.156 542.25 518.333 541.031 519.062 539.531V532.594H514.531C507.448 532.594 503.906 534.667 503.906 538.812C503.906 540.625 504.51 542.042 505.719 543.062C506.927 544.083 508.479 544.594 510.375 544.594ZM534.031 545.969C534.031 544.969 534.323 544.135 534.906 543.469C535.51 542.802 536.406 542.469 537.594 542.469C538.781 542.469 539.677 542.802 540.281 543.469C540.906 544.135 541.219 544.969 541.219 545.969C541.219 546.927 540.906 547.729 540.281 548.375C539.677 549.021 538.781 549.344 537.594 549.344C536.406 549.344 535.51 549.021 534.906 548.375C534.323 547.729 534.031 546.927 534.031 545.969ZM595.219 532.469C595.219 537.615 594.042 541.76 591.688 544.906C589.333 548.052 586.146 549.625 582.125 549.625C578.021 549.625 574.792 548.323 572.438 545.719V562H566.656V515.188H571.938L572.219 518.938C574.573 516.021 577.844 514.562 582.031 514.562C586.094 514.562 589.302 516.094 591.656 519.156C594.031 522.219 595.219 526.479 595.219 531.938V532.469ZM589.438 531.812C589.438 528 588.625 524.99 587 522.781C585.375 520.573 583.146 519.469 580.312 519.469C576.812 519.469 574.188 521.021 572.438 524.125V540.281C574.167 543.365 576.812 544.906 580.375 544.906C583.146 544.906 585.344 543.812 586.969 541.625C588.615 539.417 589.438 536.146 589.438 531.812ZM601.062 531.781C601.062 528.469 601.708 525.49 603 522.844C604.312 520.198 606.125 518.156 608.438 516.719C610.771 515.281 613.427 514.562 616.406 514.562C621.01 514.562 624.729 516.156 627.562 519.344C630.417 522.531 631.844 526.771 631.844 532.062V532.469C631.844 535.76 631.208 538.719 629.938 541.344C628.688 543.948 626.885 545.979 624.531 547.438C622.198 548.896 619.51 549.625 616.469 549.625C611.885 549.625 608.167 548.031 605.312 544.844C602.479 541.656 601.062 537.438 601.062 532.188V531.781ZM606.875 532.469C606.875 536.219 607.74 539.229 609.469 541.5C611.219 543.771 613.552 544.906 616.469 544.906C619.406 544.906 621.74 543.76 623.469 541.469C625.198 539.156 626.062 535.927 626.062 531.781C626.062 528.073 625.177 525.073 623.406 522.781C621.656 520.469 619.323 519.312 616.406 519.312C613.552 519.312 611.25 520.448 609.5 522.719C607.75 524.99 606.875 528.24 606.875 532.469ZM655.438 520.375C654.562 520.229 653.615 520.156 652.594 520.156C648.802 520.156 646.229 521.771 644.875 525V549H639.094V515.188H644.719L644.812 519.094C646.708 516.073 649.396 514.562 652.875 514.562C654 514.562 654.854 514.708 655.438 515V520.375ZM670.188 507V515.188H676.5V519.656H670.188V540.625C670.188 541.979 670.469 543 671.031 543.688C671.594 544.354 672.552 544.688 673.906 544.688C674.573 544.688 675.49 544.562 676.656 544.312V549C675.135 549.417 673.656 549.625 672.219 549.625C669.635 549.625 667.688 548.844 666.375 547.281C665.062 545.719 664.406 543.5 664.406 540.625V519.656H658.25V515.188H664.406V507H670.188ZM686.125 549V519.656H680.781V515.188H686.125V511.719C686.125 508.094 687.094 505.292 689.031 503.312C690.969 501.333 693.708 500.344 697.25 500.344C698.583 500.344 699.906 500.521 701.219 500.875L700.906 505.562C699.927 505.375 698.885 505.281 697.781 505.281C695.906 505.281 694.458 505.833 693.438 506.938C692.417 508.021 691.906 509.583 691.906 511.625V515.188H699.125V519.656H691.906V549H686.125ZM704 531.781C704 528.469 704.646 525.49 705.938 522.844C707.25 520.198 709.062 518.156 711.375 516.719C713.708 515.281 716.365 514.562 719.344 514.562C723.948 514.562 727.667 516.156 730.5 519.344C733.354 522.531 734.781 526.771 734.781 532.062V532.469C734.781 535.76 734.146 538.719 732.875 541.344C731.625 543.948 729.823 545.979 727.469 547.438C725.135 548.896 722.448 549.625 719.406 549.625C714.823 549.625 711.104 548.031 708.25 544.844C705.417 541.656 704 537.438 704 532.188V531.781ZM709.812 532.469C709.812 536.219 710.677 539.229 712.406 541.5C714.156 543.771 716.49 544.906 719.406 544.906C722.344 544.906 724.677 543.76 726.406 541.469C728.135 539.156 729 535.927 729 531.781C729 528.073 728.115 525.073 726.344 522.781C724.594 520.469 722.26 519.312 719.344 519.312C716.49 519.312 714.188 520.448 712.438 522.719C710.688 524.99 709.812 528.24 709.812 532.469ZM748.312 549H742.531V501H748.312V549ZM763.875 549H758.094V515.188H763.875V549ZM757.625 506.219C757.625 505.281 757.906 504.49 758.469 503.844C759.052 503.198 759.906 502.875 761.031 502.875C762.156 502.875 763.01 503.198 763.594 503.844C764.177 504.49 764.469 505.281 764.469 506.219C764.469 507.156 764.177 507.938 763.594 508.562C763.01 509.188 762.156 509.5 761.031 509.5C759.906 509.5 759.052 509.188 758.469 508.562C757.906 507.938 757.625 507.156 757.625 506.219ZM771.625 531.781C771.625 528.469 772.271 525.49 773.562 522.844C774.875 520.198 776.688 518.156 779 516.719C781.333 515.281 783.99 514.562 786.969 514.562C791.573 514.562 795.292 516.156 798.125 519.344C800.979 522.531 802.406 526.771 802.406 532.062V532.469C802.406 535.76 801.771 538.719 800.5 541.344C799.25 543.948 797.448 545.979 795.094 547.438C792.76 548.896 790.073 549.625 787.031 549.625C782.448 549.625 778.729 548.031 775.875 544.844C773.042 541.656 771.625 537.438 771.625 532.188V531.781ZM777.438 532.469C777.438 536.219 778.302 539.229 780.031 541.5C781.781 543.771 784.115 544.906 787.031 544.906C789.969 544.906 792.302 543.76 794.031 541.469C795.76 539.156 796.625 535.927 796.625 531.781C796.625 528.073 795.74 525.073 793.969 522.781C792.219 520.469 789.885 519.312 786.969 519.312C784.115 519.312 781.812 520.448 780.062 522.719C778.312 524.99 777.438 528.24 777.438 532.469Z" fill="white"/>
</svg>
