<svg width="220" height="220" viewBox="0 0 220 220" fill="none" xmlns="http://www.w3.org/2000/svg">
<rect width="220" height="220" fill="#FFCC00"/>
<path d="M95 155.809V141.809M123 141.809V155.809M134 121.309C132.182 142.559 97.6711 167.151 85 121.309M78.5 93.3094C80 90.8094 72 84.8094 72 84.8094C72 84.8094 85 68.3094 95 64.3094C105 60.3094 107.5 62.3094 114 64.3094C120.5 66.3094 124.5 72.3094 124.5 72.3094C133.472 72.7859 135.158 75.3947 139 84.8094" stroke="white" stroke-width="4"/>
<path d="M85.4343 122.851V120.363C85.4343 120.363 83.0876 122.007 81 123.5C78.9124 124.993 78.6496 116.88 76.5619 112.402C74.4743 107.923 78.6495 110.411 81.781 110.909M81.781 110.909C84.9124 111.407 85.4343 108.421 85.4343 108.421C85.3518 103.541 85.2525 100.803 87 95.9808M81.781 110.909L78.6495 92" stroke="white" stroke-width="4"/>
<path d="M134 122V120.5C134 120.5 135 121 137 122.5C139 124 140 117 142 112.5C143.521 109.077 140.071 108.704 137.73 109.421M133 95.4999C133.5 100.5 133.579 103.596 133.5 108.5C133.5 108.5 134 111.5 137 111C137.718 110.88 136.994 109.646 137.73 109.421M137.5 82.5C139.97 82.4009 140.482 98.1429 137.73 109.421" stroke="white" stroke-width="4"/>
<path d="M77 53.5H37.5C27.6661 56.4138 23.9213 59.4128 22 68.5V190H197.5V68.5C195.359 58.7277 190.849 56.1634 182 53.5H142.5M77 53.5V37L83 31H137L142.5 37V53.5M77 53.5H142.5" stroke="white" stroke-width="6"/>
<path d="M55 190C55 190 55 183.601 55 179.5C53.5585 170.024 63.7286 164.905 94.5 156C97.5878 162.676 109 167.5 109 167.5C109 167.5 122.092 162.689 124 156C155.881 165.517 163.416 169.643 164 175.5V190" stroke="white" stroke-width="5"/>
<path d="M133.5 109C133.5 105.561 132.886 101.908 132.886 98.4413C132.886 96.7194 133.032 94.9677 132.597 93.3263C132.09 91.4084 130.874 89.6517 129.817 87.9491M130.34 88.782C129.666 87.637 125.278 82.1166 124.571 81.0243C124.433 80.8106 123.266 82.0705 122.971 82.3358C122.342 82.9014 121.363 83.1506 120.61 83.5162C118.46 84.5603 116.233 85.1326 114 85.8769" stroke="white" stroke-width="4" stroke-linecap="round" stroke-linejoin="round"/>
<path d="M101.077 88.4C103.292 88.4447 106.676 90.2947 108 88M90 92C91.0689 89.7516 92.6985 89.4313 95.5385 88.8" stroke="white" stroke-width="3" stroke-linecap="round" stroke-linejoin="round"/>
</svg>
