<svg width="220" height="220" viewBox="0 0 220 220" fill="none" xmlns="http://www.w3.org/2000/svg">
<rect width="220" height="220" fill="#0856A0"/>
<path d="M98.2663 147.038V135.48M121.382 135.48V147.038M130.463 118.556C128.962 136.099 100.471 156.401 90.0106 118.556M84.6444 95.4405C85.8828 93.3766 79.2783 88.4232 79.2783 88.4232C79.2783 88.4232 90.0106 74.8014 98.2663 71.4991C106.522 68.1968 108.586 69.8479 113.952 71.4991C119.318 73.1502 122.62 78.1036 122.62 78.1036C130.027 78.497 131.42 80.6507 134.591 88.4232" stroke="white" stroke-width="4"/>
<path d="M90.3692 119.829V117.775C90.3692 117.775 88.4318 119.132 86.7084 120.365C84.9849 121.597 84.7679 114.9 83.0445 111.202C81.321 107.505 84.7679 109.559 87.3531 109.97M87.3531 109.97C89.9383 110.381 90.3692 107.916 90.3692 107.916C90.3011 103.887 90.2191 101.627 91.6618 97.6459M87.3531 109.97L84.7679 94.3595" stroke="white" stroke-width="4"/>
<path d="M130.463 119.126V117.888C130.463 117.888 131.289 118.301 132.94 119.539C134.591 120.777 135.417 114.998 137.068 111.283C138.324 108.458 135.476 108.15 133.543 108.741M129.638 97.2488C130.051 101.377 130.116 103.933 130.051 107.981C130.051 107.981 130.463 110.458 132.94 110.045C133.533 109.946 132.935 108.927 133.543 108.741M133.353 86.5165C135.392 86.4347 135.815 99.4307 133.543 108.741" stroke="white" stroke-width="4"/>
<path d="M83.4061 62.5752H50.7963C42.6778 64.9808 39.5862 67.4566 38 74.9587V175.265H182.887V74.9587C181.119 66.891 177.396 64.7741 170.091 62.5752H137.481M83.4061 62.5752V48.9534L88.3595 44H132.94L137.481 48.9534V62.5752M83.4061 62.5752H137.481" stroke="white" stroke-width="6"/>
<path d="M65.2437 175.265C65.2437 175.265 65.2437 169.982 65.2437 166.597C64.0537 158.773 72.4497 154.547 97.8536 147.196C100.403 152.707 109.824 156.69 109.824 156.69C109.824 156.69 120.633 152.718 122.208 147.196C148.527 155.052 154.748 158.459 155.23 163.294V175.265" stroke="white" stroke-width="5"/>
<path d="M130.051 108.394C130.051 105.555 129.544 102.539 129.544 99.6772C129.544 98.2557 129.664 96.8096 129.305 95.4545C128.886 93.8711 127.882 92.4209 127.01 91.0153M127.442 91.7029C126.886 90.7576 123.262 86.2002 122.679 85.2984C122.565 85.122 121.601 86.1621 121.358 86.3811C120.839 86.8481 120.03 87.0538 119.409 87.3556C117.634 88.2176 115.795 88.69 113.952 89.3045" stroke="white" stroke-width="4" stroke-linecap="round" stroke-linejoin="round"/>
<path d="M103.283 91.3875C105.112 91.4243 107.906 92.9517 108.999 91.0573M94.1385 94.3595C95.021 92.5033 96.3663 92.2389 98.7109 91.7177" stroke="white" stroke-width="3" stroke-linecap="round" stroke-linejoin="round"/>
</svg>
